<?xml version="1.0" standalone="no"?>
<!DOCTYPE svg PUBLIC "-//W3C//DTD SVG 20010904//EN"
 "http://www.w3.org/TR/2001/REC-SVG-20010904/DTD/svg10.dtd">
<svg version="1.0" xmlns="http://www.w3.org/2000/svg"
 width="200.000000pt" height="200.000000pt" viewBox="0 0 200.000000 200.000000"
 preserveAspectRatio="xMidYMid meet">

<g transform="translate(0.000000,200.000000) scale(0.100000,-0.100000)"
fill="#000000" stroke="none">
<path d="M1272 1974 c-29 -14 -89 -61 -133 -105 l-81 -79 -71 0 c-40 0 -90 -5
-112 -11 -22 -6 -61 -10 -86 -9 -44 1 -51 5 -133 84 -48 46 -107 94 -131 107
-44 23 -44 23 -66 4 -48 -44 -107 -228 -117 -370 -4 -57 -10 -83 -21 -92 -11
-8 -13 -15 -6 -22 14 -14 -49 -148 -90 -192 l-30 -31 44 22 c36 18 43 19 38 6
-41 -105 -52 -167 -52 -281 0 -105 3 -127 23 -172 13 -28 33 -60 45 -70 21
-18 21 -18 7 2 -8 11 4 3 27 -17 23 -20 56 -44 73 -53 31 -16 31 -15 -14 41
-46 60 -53 83 -13 47 12 -12 47 -37 78 -56 62 -40 71 -58 85 -186 l7 -65 17
44 17 44 17 -31 c17 -33 74 -83 95 -83 8 0 7 10 -4 31 -9 17 -14 33 -12 35 7
8 62 -42 76 -70 19 -34 30 -33 38 4 3 17 11 30 17 30 6 0 -31 23 -82 52 -128
71 -208 148 -155 148 14 0 12 5 -9 28 -15 16 -35 59 -48 107 -13 44 -29 92
-36 106 -12 25 -10 29 31 74 25 26 57 67 72 91 16 24 32 43 37 41 5 -2 20 -31
33 -65 30 -73 39 -77 18 -7 -19 62 -19 75 3 75 9 0 27 -18 40 -40 12 -22 36
-55 53 -74 l30 -34 -20 -51 -19 -51 30 18 c16 9 34 22 40 29 7 9 16 8 36 -7
15 -11 44 -26 64 -35 l38 -15 -34 61 -34 61 48 75 c27 41 52 83 55 93 18 56
49 -10 41 -87 -4 -38 -3 -51 3 -38 5 11 10 30 10 43 1 12 5 22 9 22 4 0 30
-23 57 -51 28 -28 74 -64 102 -81 48 -27 52 -33 47 -56 -11 -47 -54 -136 -86
-177 -17 -22 -36 -46 -42 -54 -14 -18 45 11 89 43 54 40 61 39 18 -3 -45 -44
-44 -45 29 -41 l47 2 -13 -44 c-7 -23 -16 -68 -19 -98 l-6 -55 12 42 12 42 25
-37 25 -37 3 53 c3 54 16 69 26 29 6 -25 43 -77 54 -77 4 0 7 35 7 78 1 42 7
90 15 107 l13 30 7 -37 c6 -34 34 -88 46 -88 3 0 2 10 -2 22 -9 31 -7 134 4
154 7 13 11 10 22 -15 13 -33 63 -81 83 -81 6 0 2 7 -10 15 -33 23 -37 69 -14
172 15 65 21 128 21 210 l0 117 41 -39 41 -40 -20 35 c-12 19 -41 85 -66 145
-25 61 -62 141 -81 178 -28 54 -34 72 -25 82 10 12 5 18 -22 30 -32 16 -33 19
-35 77 -4 144 -45 292 -90 328 -33 26 -38 25 -101 -6z m70 -143 c-3 -16 7 -34
28 -56 31 -32 31 -33 11 -40 -25 -8 -27 -24 -6 -51 18 -24 19 -34 0 -34 -9 0
-12 -6 -8 -16 4 -10 -10 -6 -44 15 -28 17 -65 36 -82 42 -29 10 -31 14 -25 42
3 17 15 50 25 73 14 33 24 44 46 47 48 7 58 3 55 -22z m-819 -12 c16 -7 29
-27 40 -63 10 -29 17 -59 16 -67 0 -16 -97 -82 -109 -74 -4 2 -10 21 -13 42
-5 30 -1 45 19 76 19 29 24 46 19 68 -7 32 -6 33 28 18z m887 -294 c54 -64 72
-113 21 -57 -17 17 -34 32 -38 33 -34 3 -51 7 -73 14 l-25 9 25 6 c20 5 25 12
23 34 -3 37 8 31 67 -39z m-937 23 c-5 -7 -8 -30 -7 -50 1 -32 -2 -38 -19 -38
-12 0 -31 -10 -44 -22 -17 -16 -23 -18 -23 -7 0 18 24 54 63 97 31 32 48 43
30 20z m199 -68 c6 0 5 -6 -2 -15 -19 -23 -33 -3 -23 31 7 26 8 27 11 7 2 -13
8 -23 14 -23z m341 -1 c-4 -4 -14 -4 -22 0 -12 8 -12 11 0 24 12 13 15 13 23
0 4 -8 4 -19 -1 -24z m207 16 c11 -13 8 -15 -13 -15 -28 0 -44 15 -25 23 21 9
25 8 38 -8z m-556 -322 c16 -32 16 -33 -4 -33 -16 0 -20 7 -20 37 0 41 1 41
24 -4z m265 -100 c-41 -60 -38 -57 -45 -50 -6 5 63 97 73 97 2 0 -10 -21 -28
-47z m-76 -95 l29 -21 -6 24 c-4 13 3 6 15 -16 12 -22 28 -48 37 -57 24 -28
-1 -21 -49 13 -50 35 -95 83 -141 149 l-32 45 59 -58 c32 -32 71 -67 88 -79z
m-39 -27 c3 -4 -4 -17 -16 -27 -20 -18 -21 -18 -15 -1 4 10 7 23 7 28 0 11 17
12 24 0z"/>
<path d="M580 954 c-45 -20 -70 -43 -70 -66 0 -17 3 -17 43 7 24 14 46 22 49
19 4 -3 2 -19 -2 -36 -12 -39 -3 -83 22 -105 11 -9 19 -13 18 -8 -5 24 2 30
31 29 17 0 34 -6 38 -13 13 -20 34 43 26 77 -4 19 -1 39 7 52 11 19 10 24 -11
41 -28 23 -100 25 -151 3z m67 -59 c3 -9 3 -19 -1 -22 -8 -9 -37 18 -30 28 8
14 24 11 31 -6z"/>
<path d="M1065 843 c-45 -10 -73 -26 -78 -45 -5 -17 -2 -19 16 -14 51 14 125
18 160 8 38 -11 47 -3 29 25 -6 10 -86 35 -102 32 -3 -1 -14 -3 -25 -6z"/>
<path d="M846 446 c19 -23 31 -31 36 -24 9 16 2 25 -34 44 l-30 16 28 -36z"/>
<path d="M1291 457 c-1 -29 21 -80 47 -110 14 -16 12 -21 -24 -58 -21 -22 -81
-73 -133 -112 -90 -69 -96 -72 -145 -71 -60 2 -105 22 -135 60 l-21 27 0 -47
c0 -26 4 -45 9 -42 4 3 6 17 3 31 l-5 26 28 -25 c17 -16 50 -30 86 -38 l58
-12 -52 -34 c-65 -44 -85 -63 -32 -32 108 63 342 244 369 285 16 24 15 27 -4
53 -12 16 -27 51 -35 78 -10 38 -13 43 -14 21z"/>
<path d="M1328 423 c7 -3 16 -2 19 1 4 3 -2 6 -13 5 -11 0 -14 -3 -6 -6z"/>
<path d="M915 396 c10 -14 19 -26 22 -26 7 0 -17 39 -28 46 -6 3 -3 -5 6 -20z"/>
<path d="M1410 390 c30 -17 67 -44 82 -60 15 -17 46 -37 68 -46 22 -9 40 -23
40 -31 0 -8 14 -19 30 -24 17 -6 30 -13 30 -15 0 -3 -38 -51 -86 -107 l-85
-102 207 -3 c114 -1 209 0 212 2 9 9 -109 221 -137 248 -22 20 -57 33 -148 54
-80 18 -127 35 -147 51 -30 25 -99 63 -113 63 -4 0 17 -14 47 -30z"/>
<path d="M896 325 c-11 -8 -16 -15 -10 -15 5 0 18 7 28 15 11 8 16 15 10 15
-5 0 -18 -7 -28 -15z"/>
<path d="M625 280 c-131 -34 -151 -46 -199 -119 -41 -62 -86 -144 -86 -156 0
-3 72 -5 160 -5 88 0 160 2 160 4 0 3 -13 37 -29 78 -46 118 -46 111 1 133 25
12 50 33 61 53 22 37 24 37 -68 12z"/>
<path d="M873 250 c0 -30 2 -43 4 -27 2 15 2 39 0 55 -2 15 -4 2 -4 -28z"/>
<path d="M892 65 c0 -16 2 -22 5 -12 2 9 2 23 0 30 -3 6 -5 -1 -5 -18z"/>
<path d="M818 25 c-4 -19 -1 -25 12 -25 17 0 34 33 22 44 -13 14 -30 4 -34
-19z"/>
<path d="M1093 34 c-18 -8 -3 -34 19 -34 13 0 18 5 15 14 -3 8 -1 17 6 20 7 2
3 4 -8 4 -11 0 -25 -2 -32 -4z"/>
<path d="M901 14 c0 -11 3 -14 6 -6 3 7 2 16 -1 19 -3 4 -6 -2 -5 -13z"/>
</g>
</svg>
